<?xml version="1.0" encoding="UTF-8"?>
<!DOCTYPE svg PUBLIC "-//W3C//DTD SVG 1.1//EN" "http://www.w3.org/Graphics/SVG/1.1/DTD/svg11.dtd">
<!-- Creator: CorelDRAW 2020 (64 Bit) -->
<svg xmlns="http://www.w3.org/2000/svg" xml:space="preserve" width="101.6mm" height="101.6mm" version="1.1" style="shape-rendering:geometricPrecision; text-rendering:geometricPrecision; image-rendering:optimizeQuality; fill-rule:evenodd; clip-rule:evenodd"
viewBox="0 0 10160 10160"
 xmlns:xlink="http://www.w3.org/1999/xlink"
 xmlns:xodm="http://www.corel.com/coreldraw/odm/2003">
 <defs>
  <style type="text/css">
   <![CDATA[
    .str0 {stroke:black;stroke-width:20;stroke-miterlimit:22.9256}
    .fil0 {fill:black}
   ]]>
  </style>
 </defs>
 <g id="Camada_x0020_1">
  <metadata id="CorelCorpID_0Corel-Layer"/>
  <path class="fil0 str0" d="M4271.47 6981.51c29.31,-207.12 6.31,-1290.43 6.31,-1647.82 0,-138.71 -53.29,-457.19 115.06,-439.29 140.24,14.9 90.68,323.88 90.64,458.34 -0.06,184 -0.02,367.93 0.02,551.95 0.03,308.82 -28.96,796.22 6.25,1088.31l641.19 -10.46c26.97,-285.96 4.42,-1245.26 4.4,-1648.85 0,-125.56 -57.43,-441.76 114.94,-426.3 148.78,13.35 90.74,344.91 90.74,464.37 0,370.49 -22.75,1385.41 6.72,1621.2l640.88 -9.37c23.08,-452.41 3.59,-1549.95 3.59,-2068.62 0,-222.74 -45.32,-278.46 -262.77,-278.46l-1810.56 0c-205.19,0 -292.4,41.03 -292.4,259.41 -0.1,415.45 -18.37,1781.32 4.62,2092.43 114,10.28 544.39,16.9 640.37,-6.84z"/>
  <path class="fil0 str0" d="M5479.63 2158.33c-118,119.85 39.07,17.14 -198.59,216.96 -17.86,15 -162.78,198.98 -165.95,256.59 -6.88,124.95 110.87,184.45 191.73,229.44 118.55,66 199.14,-9.64 359.37,76.46l10.32 147.48c-209.19,23.28 -445.36,-69.69 -596.28,78.8 -183.09,180.13 66.84,473.12 201.59,257.39 63.14,-101.08 111.9,-49.68 214.06,-8 171.01,69.8 380.56,153.47 572.16,126.74 145.92,-20.33 148.56,-84.28 249.07,-115.23 132.55,5.96 320,513.24 1162.83,607.17 422.03,47.03 563.76,33.24 735.57,450.39 60.41,146.67 115.68,257.97 193.1,396.24 132.54,236.82 351.06,513.59 574.52,621.55 -8.53,144.54 -25.84,318.87 31.78,447.36 43.14,96.21 155.89,199.77 279.38,193.4 43.84,-95.63 0.47,-192.87 30.28,-313.21 36.58,-147.64 7.11,-145.76 -48.41,-274.68 -48.98,-113.8 -21.99,-162.18 -105.6,-236.9 -302.42,-270.28 -166.03,-358.88 -238.57,-829.64 -50.03,-324.85 -163.97,-417.45 -176.96,-549.07 81.92,-87.72 218.81,-153.06 332.47,-325.65 148.54,-225.6 135.78,-531.77 515.98,-815.94 122.74,-91.73 318.51,-156.14 424.74,-241.44 121.65,-97.69 163.25,-419.29 -103.88,-352.53 -253.51,63.36 -594.54,441.34 -664.11,668.85 -54.11,176.94 -123.3,320.72 -216.06,450.68 -220.75,309.29 -393.35,501.32 -883.08,379.68 -364.04,-90.41 -876.51,-571.88 -1193.22,-807.42 -402.06,-298.99 -541.19,-475.65 -1064.94,-588.56 -114.5,-24.68 -98.64,-80.71 -175.86,-163.97 -50.41,12.91 -75.18,39.99 -118.26,44.21 -59.71,5.9 -58.04,-18.99 -129.18,-27.15z"/>
  <path class="fil0 str0" d="M1891.37 4686.56l0 1979.49c0,411.82 147.34,326.99 752.28,326.99 606.9,0 782,79.44 782,-307.97 0,-386.57 16.28,-1751.62 -5.57,-2032.07 -101.53,-29.6 -510.8,-26.37 -631.16,-11.51 -35.27,93.27 -16.4,1330.55 -16.71,1605.81 -0.14,117.91 45.18,445.54 -109.53,433.24 -140.91,-53.58 -96.81,-255.69 -96.81,-433.24 0,-301.79 20.93,-1472.96 -10.38,-1605.81 -103.03,-12.72 -242.26,-4.96 -349.61,-4.98 -81.68,0 -314.51,-35.39 -314.51,50.05z"/>
  <path class="fil0 str0" d="M6929.38 4953.84c225.61,-203.93 171.09,381.37 171.09,494.06 0,121.91 31.63,603.27 -37.58,652.69 -234.35,167.32 -169.81,-387.83 -169.81,-500.43 0,-133.1 -35.25,-581.64 36.3,-646.32zm-36.3 1731.23c0,-116.3 -27.96,-273.49 77.82,-301.05 143.75,-37.49 129.81,126.09 129.81,224.93l4.85 380.84 644.23 -2.89 1.73 -1786.44c4.28,-682.79 137.83,-563.95 -1244.07,-563.95 -233.32,0 -265.92,65.94 -265.92,297.49 -0.13,485.71 -20.9,1648.87 5.08,2057.99l644.97 -5.1 1.5 -301.82z"/>
  <path class="fil0 str0" d="M869.01 4905.89c215.38,-102.23 150.25,402.58 150.25,542.01 0,142.6 36.38,615.17 -50.27,667.44 -225,135.72 -161.62,-402.05 -161.62,-534.22 0,-120.55 0.15,-241.08 0,-361.63 -0.14,-103.98 -31.03,-269.6 61.64,-313.6zm-691.61 2056.59c53.39,58.39 569.55,36.05 627.01,15.09l1.73 -407.32c-0.53,-161.71 4.64,-87.29 17.72,-125.95 1.45,-4.27 4.09,-10.81 7.07,-15.72 202.18,-32.58 515.36,36.46 701.51,-35.48 186.59,-72.12 138.25,-395.08 138.25,-602.59 -0.01,-247.5 0.12,-494.87 0.15,-742.37 0.01,-300.47 2.18,-411.63 -321.47,-411.63l-1106.32 0c-139.64,0 -86.87,158.21 -86.87,506.85l0 1522.69c0,72.21 -19.23,250.88 21.22,296.43z"/>
  <path class="fil0 str0" d="M8200.92 7084.28l0 0zm-160.6 -132.74c46.75,335.75 616.15,295.61 556.01,-91.31 -52.2,-335.79 -608.63,-286.79 -556.01,91.31z"/>
  <path class="fil0 str0" d="M8254.43 6776.14c201.19,10.63 184.64,123.13 -1.24,126.96l1.24 -126.96zm-53.51 308.14l46.84 -11.35c12.15,-78.62 -10.31,-69.06 29.79,-126.22 78.92,41.52 60.26,102.07 148.33,130.41 -2.9,-70.04 -22.26,-33.45 -68.55,-125.58 146.29,-113.26 117.1,-222.71 -155.36,-210.3l-1.05 343.04z"/>
 </g>
</svg>
