<?xml version="1.0" encoding="UTF-8"?>
<!DOCTYPE svg PUBLIC "-//W3C//DTD SVG 1.1//EN" "http://www.w3.org/Graphics/SVG/1.1/DTD/svg11.dtd">
<!-- Creator: CorelDRAW 2020 (64 Bit) -->
<svg xmlns="http://www.w3.org/2000/svg" xml:space="preserve" width="101.6mm" height="101.6mm" version="1.1" style="shape-rendering:geometricPrecision; text-rendering:geometricPrecision; image-rendering:optimizeQuality; fill-rule:evenodd; clip-rule:evenodd"
viewBox="0 0 10160 10160"
 xmlns:xlink="http://www.w3.org/1999/xlink"
 xmlns:xodm="http://www.corel.com/coreldraw/odm/2003">
 <defs>
  <style type="text/css">
   <![CDATA[
    .str0 {stroke:#1A1A1A;stroke-width:25.4;stroke-miterlimit:22.9256}
    .fil0 {fill:#1A1A1A}
   ]]>
  </style>
 </defs>
 <g id="Camada_x0020_1">
  <metadata id="CorelCorpID_0Corel-Layer"/>
  <g id="_2697430022832">
   <path class="fil0 str0" d="M4653.4 4404.78l11.83 -88.06c101.49,2.07 96.42,18.29 187.73,19.94l0 262.86c-75.75,0 -269.77,7.13 -263.69,-132.75 2.95,-67.84 1.66,-55.71 64.13,-61.99zm-232.28 -507.38l8.29 44.57c70.5,-43.26 30.22,-19.26 82.67,-97.21 3.7,137.84 8.22,28.87 53.6,141.21 59.86,0 53.3,1.68 95.96,-11.16l113.39 -27.8 0 340.8c-71.97,0 -161.82,8.86 -226.55,-10.13 -5.55,-1.63 -10.03,-4.02 -15.3,-5.81 -5,-1.74 -9.53,-4.5 -14.32,-6.26l-81.56 -16.69c-141.07,21.03 73.11,25.56 -256.32,43.72 5.51,-4.4 11.73,-9.53 16.24,-13.59l62.13 -62.02c9.37,-12.28 29.63,-51.58 36.78,-65.93 38.27,-76.72 43.01,-60.32 113.58,-92.24 -19.8,-70.89 28.62,-55.99 -29.37,-60.11 -122.94,36.37 -113.06,29.9 -170.6,133.44 -39.08,70.32 -94.87,141.86 -105.83,194.78 36.45,46.11 14.59,104.62 13.77,179.99l99.65 -58.26c65.13,-37.23 48.4,-67.51 144.54,-86.2 46.89,96.74 105.22,186.74 123.23,325.57 -200.34,156.07 -73.47,110.39 -160.11,311.9 46.38,41.13 -47.84,36.39 64.46,21.84 76.15,-9.87 77.24,-136.87 78.81,-196.48 72.57,5.39 54.87,12.67 103.97,19.48l6.97 -104.23c1.23,-5.43 3.51,-12.94 6.06,-19.12 6.42,-2.68 15.28,-12.81 19.72,-6.86 7.48,10.13 81.16,-56.08 148.9,12.91 21.01,21.4 25.99,-38.26 25.99,149.8l117.1 -0.02c18.69,-105.87 19.01,-29.23 105.12,-56.36 71.15,-22.41 -8.8,56.36 27.95,-21.74 -6,-181.54 70.75,-382.07 -0.6,-561.23 -31.25,-78.42 -68.61,-115.03 -76.14,-219.01l168.12 -710.33c34.34,-84.8 54.29,-397.36 52.82,-508.37 352.99,-25.66 213.37,-327.94 202.33,-381.96 -68.16,-28.9 -290.6,-145.21 -381.91,64.35 -79.97,183.54 88.57,265.61 68.99,439.65 -11.06,98.25 -98.16,301.35 -128.9,412.81 -48.26,175.02 -52.48,320.25 -174.25,389.46 -21,-32.2 -16.03,-39.46 -44.23,-68 -196.75,-199.33 -366.16,-78.44 -384.73,55.63 -14.54,105.1 31.26,122.88 89.58,185.21z"/>
   <path class="fil0 str0" d="M4324.99 4999.97c-70.75,3.95 -97.55,10.13 -110.1,72.42l38.97 -0.26c-52.2,200.92 -83.1,144.84 -92.43,146.56 -122.98,22.79 49.36,-41.7 -44.6,1.72 -39.88,18.42 -55.22,53.85 -11.66,96.72 87.05,85.7 188.44,28.64 270,80.44 52.26,-4.79 -3.08,14.77 79.55,-25.26 283.94,-137.48 121.11,-117.59 408.7,-30.45 69.92,21.19 109.52,49.87 176.46,50.96 64.06,-6.94 20.72,-15.5 22.98,-16.65l16.53 -7.33c94.85,-28.36 103.86,21.4 187.54,53.78 24.16,-40.23 64.03,-49.5 97.41,-77.84 -3.39,-48.16 -17.36,-82.63 -16.67,-95.63 4.24,-78.32 -14.13,15.91 9.61,-27.58l24.7 -32.63c-38.65,-10.7 -61.56,-23.78 -95.37,-39.08 3.13,-11.2 4.79,-42.33 6.5,-34.27 1.03,4.86 5.37,-17.87 6.5,-20.13 0.46,-0.94 5.11,-3.37 6.5,-5.95 -22.69,-40.35 -87.2,-48.06 -136.49,-76.99 -43.66,-76.15 25.07,-52.52 -56.92,-137.39 -38.58,-39.95 -35.18,-19.7 -82.66,-75.94 -36.75,78.1 43.2,-0.67 -27.95,21.74 -86.11,27.13 -86.43,-49.51 -105.12,56.36l-117.1 0.02c0,-188.06 -4.98,-128.4 -25.99,-149.8 -67.74,-68.99 -141.42,-2.78 -148.9,-12.91 -4.44,-5.95 -13.3,4.18 -19.72,6.86 -2.55,6.18 -4.83,13.69 -6.06,19.12l-6.97 104.23c-49.1,-6.81 -31.4,-14.09 -103.97,-19.48 -1.57,59.61 -2.66,186.61 -78.81,196.48 -112.3,14.55 -18.08,19.29 -64.46,-21.84z"/>
   <path class="fil0 str0" d="M5039.88 5392.82c40.36,44.69 2.44,6.75 59.96,41.28 15.06,9.04 21.92,11 38.84,22.71 27.12,18.73 18.63,12.25 35.87,29.61 375.11,7.87 548.01,255.35 704.01,339.02 49.18,26.38 46.11,16.8 89.74,45.86 31.09,20.68 46.29,37.84 75.27,61.22 76.16,61.42 87.5,27.69 160.9,91.29 164.24,142.34 174.73,229.87 231.49,282.41 66.76,-38.25 70.77,-52.08 127.23,-94.31 72.52,-54.22 107.08,-45.59 244.01,-165 9.1,-7.96 45.23,-42.5 49.37,-48.16 25.77,-35.27 22.34,-20.51 29.94,-69.5 -86.38,-45.84 -86.78,8.23 -164.81,31.85 -69.09,20.91 -158.13,4.63 -233.7,4.48 12.41,-36.62 -2.4,-23.52 26.18,-41.94l-7.78 -37.45c-100.7,53.21 -138.5,31.45 -189.56,-50.34 -2.37,-3.75 -4.75,-9.02 -7.15,-12.74l-35.55 -44.05c-118.32,-116.39 -505.88,-398.21 -656.14,-475.92 -116.65,-60.31 -165.74,-165.21 -311.89,-213.63 -1.39,2.58 -6.04,5.01 -6.5,5.95 -1.13,2.26 -5.47,24.99 -6.5,20.13 -1.71,-8.06 -3.37,23.07 -6.5,34.27 33.81,15.3 56.72,28.38 95.37,39.08l-24.7 32.63c-23.74,43.49 -5.37,-50.74 -9.61,27.58 -0.69,13 13.28,47.47 16.67,95.63 -33.38,28.34 -73.25,37.61 -97.41,77.84 -83.68,-32.38 -92.69,-82.14 -187.54,-53.78l-16.53 7.33c-2.26,1.15 41.08,9.71 -22.98,16.65z"/>
   <path class="fil0 str0" d="M3032.03 5943.36l-9 58.65 -55.89 10.06c-35.57,53 -74.31,62.63 -147.94,79.06 -126.68,28.26 -101.34,0.82 -183.86,65.74 16.63,66.73 16.43,52.9 46.81,110.45l76.16 32.23c70.32,14.5 22.79,9.27 86.55,-3.69 265,-53.83 116.56,28.38 273.68,-117.37 98.64,-91.5 90.75,-115.68 220.98,-168.02l121.8 -48.86c1.79,-5.15 8,-3.86 12.31,-4.85 21.25,-28.54 13.3,-23.62 51.57,-55.55 16.33,-13.62 38.49,-27.09 56.72,-39.6 48.98,-33.67 70.93,-47.27 128.59,-79.55 84.88,-35.08 153.97,-96.18 226.05,-119.49l393.1 -221.85c47.74,-33.34 19.96,-10.94 45.51,-43.15 -81.56,-51.8 -182.95,5.26 -270,-80.44 -43.56,-42.87 -28.22,-78.3 11.66,-96.72 93.96,-43.42 -78.38,21.07 44.6,-1.72 9.33,-1.72 40.23,54.36 92.43,-146.56l-38.97 0.26c-183.86,97.79 -184.62,162.22 -272.62,253.18 -91.9,94.98 -466.7,191.43 -744.25,520.34 -37.56,44.52 -36.12,53.87 -98.37,79.2 -4.14,1.7 -9.59,3.58 -13.73,5.03 -33.87,11.85 -2.99,12.47 -53.89,13.22z"/>
   <path class="fil0 str0" d="M2909.79 7371.14l-6.92 -54.78c-108.56,-50.17 74.47,56.6 -116.75,-8.02 -1.21,-0.4 -5.68,-2.26 -6.83,-2.54l-20.16 0.2c-1.61,-0.04 -7.71,0.46 -9.28,0.42l-36.82 -5.1c-36.11,18.17 -8.74,23.03 -56.78,3.06 -115.09,18.73 -568.12,36.08 -694.45,0.98 -59.95,-86.28 -38.57,-130.32 -39.14,-266.12 -0.55,-127.08 -19.68,-134.36 51.98,-213.43 40.14,-37.57 0.04,-11.71 57.02,-31.45 57.81,-20.02 207.76,-7.79 274.08,-7.79 102.02,-0.02 222.76,-14.98 311.71,19.38 3.13,-5.7 -3.1,-15.97 -2.15,-17.68 14.95,-27.29 -60.9,18.77 14.71,-9.15l63.94 -19.52c4.06,-8.73 14.7,-3.71 20.81,-7.95 -201.3,-4.16 -766.73,41.16 -907.27,-22.18l900.36 -13.91c-98.49,29.61 -721.73,28.24 -838.28,-3.23 -83.16,-24.1 -183.76,13.45 -214.42,67.8 -36.01,63.82 -20.83,202.31 -20.71,279.09 0.65,438.23 -13.94,392.58 788.19,392.88 94.08,0.02 199.75,4.74 292.38,-3.49 86.8,-7.7 191.31,-17.06 194.78,-77.47z"/>
   <path class="fil0 str0" d="M5033.15 7446.75c-0.42,-61.46 -37.46,-30.52 74.48,-44.23l881.04 -17.76c37.26,-17.9 72.48,67.24 45.18,-57.3 -109.28,10.23 -722.92,32.25 -765.79,-27.9l-52.91 51.8c6.06,-99.88 5.72,-193.31 9.11,-292.18 1.33,-38.91 11.31,-107.74 10.42,-138.44 -3.84,-131.36 21.79,-48.35 -39.1,-88.78l8.6 565.96 -138.73 -1.05 2.46 -634.2c235.11,7.33 132.86,16.35 257.62,37.72l506.61 5.68c200.09,0.57 251.16,-50.02 187.45,-2.62l4.25 36.39c40.06,61.18 17.29,366.04 13.64,463.44l78.15 -36.21c0,-72.93 -42.95,-332.28 47.58,-441.54 108.77,43.86 74.96,-21.3 92.46,93.87 7.86,51.68 -24.44,302.27 -1.51,384.46 -67.72,88.95 -117.63,69.58 -235.94,82.26 48.19,40.47 76.73,37.94 145.09,43.29 90.55,-23.6 75.61,-32.94 142.36,-65.18 13.04,-105.52 35.85,-452.09 2.55,-566.05l-19.3 -49.61c-229,-72.86 -349.46,-54.85 -612.76,-54.85 -183.04,0 -504.26,-18.45 -670.42,5.98l-3.29 671.72c12.67,94.73 -12.01,32.6 30.7,75.33z"/>
   <path class="fil0 str0" d="M955.6 7281.44c-198.81,60.77 -370.98,44.89 -598.08,43.23 -75.23,-0.54 -165.37,-13.14 -225.46,26.79l-0.16 77.91c19.54,11.28 12.82,10.96 51.21,18.61 128.61,25.68 763.47,-3.37 852.45,-21.78 174.4,-36.11 221.03,-57.4 220.55,-249.3 -0.37,-147.51 9.6,-340.21 -5.15,-481.7l-283.44 0.52 -11.92 585.72z"/>
   <path class="fil0 str0" d="M9143.67 6708.63l-0.89 520.16 -517.23 -391.17c-42.65,0.22 -49.15,53.75 -67.47,72.12l-36.7 24.5c22.7,33.35 29.31,46.26 67.41,76.65l383.25 298.42c45.46,37.79 91.03,79.79 146.82,115.62l278.09 10.8 1.02 -571.45c1.65,-196.53 -1.28,-138.34 -39.57,-154.88l-194.83 -0.84c53.41,66.41 19.03,58.33 181.8,58.33l0.57 431.25c-12.78,104.86 2.32,84.55 -104.54,88.3 -51.95,-78.32 -21.01,-136.65 -19.11,-245.91l-3.23 -216.37c-31.39,-83.61 19.82,-15.93 -55.49,-76.57l0 434.98c10.3,-19.26 5.72,8.78 15.47,-47.55 3.67,-21.3 4.32,-33.55 5.22,-55.15 1.47,-35.14 -1.29,-81.22 -1.25,-118 0.04,-36.27 3.67,-83.89 2.77,-117.31 -2.33,-85.64 -8.68,-100.14 -42.11,-135.93z"/>
   <path class="fil0 str0" d="M6803.36 7069.82c44.8,7.87 34.38,19.8 30.1,-30 45.88,51.62 36.76,-1.91 32.6,68.07l-21.06 9.87c4.32,1.25 11.95,-2 13.13,3.17l25.93 16.31c65.28,-0.04 27.94,4.28 32.36,-14.19 31.93,-133.73 -69.19,-86.62 56.13,-208 132.61,-128.46 107.04,-243.25 245.49,-109.67 6.35,6.16 10.57,13.75 16.61,19.96 11.54,-31.44 13.28,-120.66 77.31,-54.42 15.94,16.5 36.95,16.38 -9.21,74.33l-35.76 26.52 185.25 310.24c-78.85,0.56 -158.43,-0.04 -237.13,1.49 -255.47,4.97 -207.08,23.05 -194.66,-65.74 -51.53,55.59 -0.02,70.63 -49.29,106.37l-67.52 49.29 164.32 -10.62c-13.64,-8.66 -102.27,-10.35 -109.24,-8.63 -72.93,18 -49.79,-18.37 -66.32,51.45 122.44,-32.08 505.78,-18.33 663.05,-10.48 -25.09,-74.82 -90.44,-158.87 55.52,-155.38 60.66,1.47 -14.07,-39.62 41.07,21.48 18.01,19.96 20.29,36.91 30.89,53.75l61.04 -19.5c-41,-103.45 -109.1,-173.44 -170.71,-260.24l-155.7 -236.08c-416.77,4.95 -341.56,-44.93 -495.57,184.23 -22.21,33.03 -38.63,58.31 -62.41,92.28 -37.55,53.65 -31.19,33.02 -56.22,94.14z"/>
   <path class="fil0 str0" d="M4174.56 6800.7c72.83,47.52 122.04,14.73 181.94,122.15 -24.18,75.2 -63.34,84.92 -122.11,113.4 -22.55,15.93 -29.03,24.25 -42.19,38.96 -4.02,4.48 -34.49,45.31 -36.88,51.25 -7.95,19.8 -39.22,23.03 12.53,124.7 120.07,239.92 371.12,190 508.58,190.12 -20.79,-33.35 -120.08,-114.75 -154.7,-143.68 -52.58,-43.94 -144.94,-101.18 -169.55,-160.44 162.49,-62.09 438.81,-65.6 229.34,-358.3l-132.63 -34.66c-86.35,20.2 -69.86,-24.64 -159.62,-13.58 -59.75,7.37 -49.23,-22.21 -69.43,45.76l-45.28 24.32z"/>
   <path class="fil0 str0" d="M8451.6 7435.85l-6.58 -527.52c9.58,2.34 35.14,15.78 35.34,15.86 44.71,15.3 -23.05,0.64 41.02,10.05l36.7 -24.5c18.32,-18.37 24.82,-71.9 67.47,-72.12 -50.96,-46.87 -109.12,-84.09 -160.22,-124.64l-272.22 -5.92 -3.16 727.64 261.65 1.15z"/>
   <path class="fil0 str0" d="M4167.85 7251.16c-51.75,-101.67 -20.48,-104.9 -12.53,-124.7 2.39,-5.94 32.86,-46.77 36.88,-51.25 13.16,-14.71 19.64,-23.03 42.19,-38.96l-561.62 12.17 0.06 -251.05c-58.58,43.24 -20.07,-56.84 -43.78,84.39 -1.03,6.2 1.57,109.48 -4.22,119.59l-20.93 -181.29c-2.97,105.46 13.08,169.87 26.61,271.95 29.5,222.85 -35.33,-54.95 -35.33,279.01l-139.54 0.02 -0.54 -604.15c133.42,0 258.14,-2.52 389.6,-1.41 71.73,0.58 143.4,3.45 215.23,0.26 15.5,-0.68 77.9,-5.12 90.57,-7.87l78.6 -33.37c-132.72,-18.5 -773.74,-1.78 -812.98,-24.14 -63.56,36.26 -41.3,290.82 -41.18,358.86 0.23,120.65 -11.48,266.48 7.67,382.89l278.15 -1.82 7.65 -277.11c586.59,0.54 289.6,6.58 499.44,87.98z"/>
   <path class="fil0 str0" d="M1974.64 6825.81c159.35,-10.28 556.02,-30.18 676.58,21.65 32.6,84.36 24.25,360.14 5.03,456.92 48.04,19.97 20.67,15.11 56.78,-3.06 25.19,-84.07 -3.35,-223.81 3.07,-340.07 5.47,-99 33.79,-168.04 133.18,-157.24 14.57,1.58 48.1,-26.48 56.73,63.16l-3.14 449.19 6.92 54.78c80.56,-56.06 54.82,-142.83 54.4,-253.34 -0.43,-106.65 4.1,-212.89 -6,-318.82l-57.14 -71.39c-228.83,-48.18 -945.03,-67.64 -1031.48,-15.26 116.55,31.47 739.79,32.84 838.28,3.23l-900.36 13.91c140.54,63.34 705.97,18.02 907.27,22.18 -6.11,4.24 -16.75,-0.78 -20.81,7.95l-63.94 19.52c-75.61,27.92 0.24,-18.14 -14.71,9.15 -0.95,1.71 5.28,11.98 2.15,17.68 -88.95,-34.36 -209.69,-19.4 -311.71,-19.38 -66.32,0 -216.27,-12.23 -274.08,7.79 -56.98,19.74 -16.88,-6.12 -57.02,31.45z"/>
   <path class="fil0 str0" d="M6803.36 7069.82c-50.5,27.75 -86.09,100.99 -133.07,165.72 -25.6,35.26 -43.5,62.92 -63.87,92.78l-64.87 75.82c-6.68,59.65 28.95,38.95 106.33,38.49 58.27,-0.34 114.49,-2.66 173.48,-1.53 43.29,-56.12 58.73,-60.15 71.04,-135.48 16.53,-69.82 -6.61,-33.45 66.32,-51.45 6.97,-1.72 95.6,-0.03 109.24,8.63l-164.32 10.62 67.52 -49.29c49.27,-35.74 -2.24,-50.78 49.29,-106.37 64.39,-26.16 156.45,-229.28 217.65,-288.14l28.89 42.15 35.76 -26.52c46.16,-57.95 25.15,-57.83 9.21,-74.33 -64.03,-66.24 -65.77,22.98 -77.31,54.42 -6.04,-6.21 -10.26,-13.8 -16.61,-19.96 -138.45,-133.58 -112.88,-18.79 -245.49,109.67 -125.32,121.38 -24.2,74.27 -56.13,208 -4.42,18.47 32.92,14.15 -32.36,14.19l-25.93 -16.31c-1.18,-5.17 -8.81,-1.92 -13.13,-3.17l21.06 -9.87c4.16,-69.98 13.28,-16.45 -32.6,-68.07 4.28,49.8 14.7,37.87 -30.1,30z"/>
   <path class="fil0 str0" d="M4421.12 3897.4l-40.78 101.35c57.99,4.12 9.57,-10.78 29.37,60.11 -70.57,31.92 -75.31,15.52 -113.58,92.24 -7.15,14.35 -27.41,53.65 -36.78,65.93l-62.13 62.02c-4.51,4.06 -10.73,9.19 -16.24,13.59 329.43,-18.16 115.25,-22.69 256.32,-43.72l81.56 16.69c4.79,1.76 9.32,4.52 14.32,6.26 5.27,1.79 9.75,4.18 15.3,5.81 64.73,18.99 154.58,10.13 226.55,10.13l0 -340.8 -113.39 27.8c-42.66,12.84 -36.1,11.16 -95.96,11.16 -45.38,-112.34 -49.9,-3.37 -53.6,-141.21 -52.45,77.95 -12.17,53.95 -82.67,97.21l-8.29 -44.57z"/>
   <path class="fil0 str0" d="M6037.48 7303.28l-16.03 2.19 12.4 21.99c27.3,124.54 -7.92,39.4 -45.18,57.3l-881.04 17.76c-111.94,13.71 -74.9,-17.23 -74.48,44.23 147.83,20.23 1011.43,15.26 1130.16,-17.34 -68.36,-5.35 -96.9,-2.82 -145.09,-43.29 118.31,-12.68 168.22,6.69 235.94,-82.26 -22.93,-82.19 9.37,-332.78 1.51,-384.46 -17.5,-115.17 16.31,-50.01 -92.46,-93.87 -90.53,109.26 -47.58,368.61 -47.58,441.54l-78.15 36.21z"/>
   <path class="fil0 str0" d="M3672.83 6797.37l501.73 3.33 45.28 -24.32c20.2,-67.97 9.68,-38.39 69.43,-45.76 89.76,-11.06 73.27,33.78 159.62,13.58l-19.68 -19.01c-341.45,-27.63 -662.18,-22.99 -1013.09,-24.83 39.24,22.36 680.26,5.64 812.98,24.14l-78.6 33.37c-12.67,2.75 -75.07,7.19 -90.57,7.87 -71.83,3.19 -143.5,0.32 -215.23,-0.26 -131.46,-1.11 -256.18,1.41 -389.6,1.41l0.54 604.15 139.54 -0.02c0,-333.96 64.83,-56.16 35.33,-279.01 -13.53,-102.08 -29.58,-166.49 -26.61,-271.95l20.93 181.29c5.79,-10.11 3.19,-113.39 4.22,-119.59 23.71,-141.23 -14.8,-41.15 43.78,-84.39z"/>
   <path class="fil0 str0" d="M4217.33 4448.7l-99.65 58.26c0.82,-75.37 22.68,-133.88 -13.77,-179.99l-38.61 49.57c-83.32,121.13 -160.41,207.73 -212.22,334.18 -99.05,241.69 -287.73,225.71 -355.58,258.59l171.33 4.8 -64 65.34c107.76,-20.1 85.54,-40.55 144.16,-3.33 4.35,2.79 9.98,8.94 13.5,11.55 3.69,2.72 8.84,8.7 13.32,12.98l42.47 -76.69c95.96,24.37 47.29,41.48 138.12,42.97 -38.19,-72.13 -79.47,-26.74 -52.13,-164.93 41.64,-210.52 243.48,-181.57 313.06,-413.3z"/>
   <path class="fil0 str0" d="M5268.06 7299.56c-20.69,-92.28 -22.58,-392.87 6.16,-483.2l745.37 -12.91c63.71,-47.4 12.64,3.19 -187.45,2.62l-506.61 -5.68c-124.76,-21.37 -22.51,-30.39 -257.62,-37.72l-2.46 634.2 138.73 1.05 -8.6 -565.96c60.89,40.43 35.26,-42.58 39.1,88.78 0.89,30.7 -9.09,99.53 -10.42,138.44 -3.39,98.87 -3.05,192.3 -9.11,292.18l52.91 -51.8z"/>
   <path class="fil0 str0" d="M2713.03 7301.32l36.82 5.1c1.57,0.04 7.67,-0.46 9.28,-0.42l20.16 -0.2c1.15,0.28 5.62,2.14 6.83,2.54 191.22,64.62 8.19,-42.15 116.75,8.02l3.14 -449.19c-8.63,-89.64 -42.16,-61.58 -56.73,-63.16 -99.39,-10.8 -127.71,58.24 -133.18,157.24 -6.42,116.26 22.12,256 -3.07,340.07z"/>
   <path class="fil0 str0" d="M4653.4 4404.78c-62.47,6.28 -61.18,-5.85 -64.13,61.99 -6.08,139.88 187.94,132.75 263.69,132.75l0 -262.86c-91.31,-1.65 -86.24,-17.87 -187.73,-19.94l-11.83 88.06z"/>
   <path class="fil0 str0" d="M9358.4 6709.4l-216.62 3.29 1.89 -4.06c33.43,35.79 39.78,50.29 42.11,135.93 0.9,33.42 -2.73,81.04 -2.77,117.31 -0.04,36.78 2.72,82.86 1.25,118 -0.9,21.6 -1.55,33.85 -5.22,55.15 -9.75,56.33 -5.17,28.29 -15.47,47.55l0 -434.98c75.31,60.64 24.1,-7.04 55.49,76.57l3.23 216.37c-1.9,109.26 -32.84,167.59 19.11,245.91 106.86,-3.75 91.76,16.56 104.54,-88.3l-0.57 -431.25c-162.77,0 -128.39,8.08 -181.8,-58.33l194.83 0.84z"/>
   <path class="fil0 str0" d="M7555.45 7295.14l2.4 22.85 46.96 -2.78c3.64,6.23 9.17,7.71 10.8,16.18l18.69 26.1c2.33,3.39 9.45,15.22 13.45,20.33l159.74 -0.57c-28.84,-151.75 -91.3,-3.33 -41.88,-103.83 -4.95,-7 -16.35,-24.71 -16.52,-19.74l-6.23 -31.1c0.36,-2.47 7.71,-6.85 10.33,-11.17l-9.22 -15.92 -61.04 19.5c-10.6,-16.84 -12.88,-33.79 -30.89,-53.75 -55.14,-61.1 19.59,-20.01 -41.07,-21.48 -145.96,-3.49 -80.61,80.56 -55.52,155.38z"/>
   <path class="fil0 str0" d="M7557.85 7317.99c32.07,58.19 32.43,67.08 75.75,120.71l295.18 2.84c-29.15,-67.01 -39.06,-49.01 -64.23,-123.96 -72.59,-32.23 -5.51,-28.82 -111.36,-106.17 -2.62,4.32 -9.97,8.7 -10.33,11.17l6.23 31.1c0.17,-4.97 11.57,12.74 16.52,19.74 -49.42,100.5 13.04,-47.92 41.88,103.83l-159.74 0.57c-4,-5.11 -11.12,-16.94 -13.45,-20.33l-18.69 -26.1c-1.63,-8.47 -7.16,-9.95 -10.8,-16.18l-46.96 2.78z"/>
  </g>
 </g>
</svg>
