<?xml version="1.0" encoding="UTF-8"?>
<!DOCTYPE svg PUBLIC "-//W3C//DTD SVG 1.1//EN" "http://www.w3.org/Graphics/SVG/1.1/DTD/svg11.dtd">
<!-- Creator: CorelDRAW 2020 (64 Bit) -->
<svg xmlns="http://www.w3.org/2000/svg" xml:space="preserve" width="101.6mm" height="101.6mm" version="1.1" style="shape-rendering:geometricPrecision; text-rendering:geometricPrecision; image-rendering:optimizeQuality; fill-rule:evenodd; clip-rule:evenodd"
viewBox="0 0 10160 10160"
 xmlns:xlink="http://www.w3.org/1999/xlink"
 xmlns:xodm="http://www.corel.com/coreldraw/odm/2003">
 <defs>
  <style type="text/css">
   <![CDATA[
    .str0 {stroke:black;stroke-width:20;stroke-miterlimit:22.9256}
    .fil0 {fill:black}
   ]]>
  </style>
 </defs>
 <g id="Camada_x0020_1">
  <metadata id="CorelCorpID_0Corel-Layer"/>
  <path class="fil0 str0" d="M3657.51 5755.52c2.32,-34.8 205.13,-686.41 218.08,-704.15 22,56.43 197.83,671.17 197.4,703.83l-415.48 0.32zm-1023.5 444.58l760.8 -2085.9 5716.62 -0.92 216.09 -615.04 -6491.45 0.77c-34.15,70.37 -68,193.11 -94.89,270.91 -31.46,90.98 -62.65,182.29 -93.11,272.56 -62.42,184.97 -123.27,360.93 -186.62,545.01l-376.29 1081.75 -649.61 -2192.53 -756.46 0.29 987.2 3096.61 829.28 0.48 138.44 -373.99zm2513.7 377.42l654.5 -3.51 0.36 -1249.87c35.06,32.89 523.06,945.72 608.37,1091.94 27.97,47.94 65.6,111.28 85.13,157.74l670.31 0.84 3.38 -2289.38 -645.59 -0.39 1.04 1227.69c-39.64,-6.05 -12.56,0.4 -21.45,-12.29 -12.23,-46.39 -615.42,-1160.03 -648.19,-1218.29l-709.01 -0.52 1.15 2296.04zm2797.22 -2287.94c-152.74,78.24 -277.17,111.95 -395.41,295.56 -92.14,143.09 -142.06,374.51 -86.69,573.34 49.67,178.34 184.44,284.73 337.73,355.47 78.11,36.04 168.92,68.97 256.64,94.1 35.36,10.12 254.68,71.59 261.34,77.99 78.76,16.43 192.38,55.17 259.76,86.59 77.75,36.27 147.3,99.34 94.76,218.04 -63.98,144.55 -309.81,149.83 -442.12,106.76 -19.3,-6.28 -43.37,-14.03 -49.64,-25.39 -57.1,-21.64 -100.71,-69.9 -114.83,-141.73 -18.59,-36.99 -14.24,-86.46 -24.57,-128.1l-689.27 0.3c1.32,145.1 33.18,304.65 110.55,422.37 23.98,36.49 62.16,79.31 72.89,108.03 27.48,15.62 35.32,31.37 58.51,49.95 16.94,13.57 36.57,28.72 56.36,43 24.89,17.96 109.96,66.77 123.95,82.92 66.97,8.01 392.86,204.38 934.09,82.65 40.5,-9.11 94.21,-30.06 130.55,-29.88 43.03,-41.19 456.61,-116.77 532.35,-579.85 142.25,-869.72 -931.14,-791.57 -1200.36,-983.36 -49.11,-34.98 -110.54,-107.87 -51.14,-185.16 94.85,-123.42 529.99,-125.26 511.97,162.32l656.28 0.12c-22.3,-541.78 -415.71,-730.23 -870.76,-747.3 -199.45,-7.49 -296.41,17.16 -472.94,61.26zm-4972.49 1541.66l-268.63 742.12 699.1 0.74 46.01 -145.4 53.94 -181.83 713.36 0.28 94.86 326.03 677.98 2.14c58.43,-5.1 24.1,4.23 39.49,-17 -15.47,-23.2 -67.12,-170.27 -67.51,-199.15 -8.7,-9.95 0.89,4.89 -9.96,-14.12 -5.41,-9.46 -2.77,-4.42 -7.51,-15.94 -5,-12.18 -7.58,-22.04 -11.73,-34.14l-349.27 -976.6c-111.7,-315.23 -255.35,-737.85 -372.08,-1036.39l-677.62 -0.81 -560.43 1550.07z"/>
 </g>
</svg>
