<?xml version="1.0" encoding="UTF-8"?>
<!DOCTYPE svg PUBLIC "-//W3C//DTD SVG 1.1//EN" "http://www.w3.org/Graphics/SVG/1.1/DTD/svg11.dtd">
<!-- Creator: CorelDRAW 2020 (64 Bit) -->
<svg xmlns="http://www.w3.org/2000/svg" xml:space="preserve" width="101.6mm" height="101.6mm" version="1.1" style="shape-rendering:geometricPrecision; text-rendering:geometricPrecision; image-rendering:optimizeQuality; fill-rule:evenodd; clip-rule:evenodd"
viewBox="0 0 10160 10160"
 xmlns:xlink="http://www.w3.org/1999/xlink"
 xmlns:xodm="http://www.corel.com/coreldraw/odm/2003">
 <defs>
  <style type="text/css">
   <![CDATA[
    .str0 {stroke:black;stroke-width:20;stroke-miterlimit:22.9256}
    .fil0 {fill:black}
   ]]>
  </style>
 </defs>
 <g id="Camada_x0020_1">
  <metadata id="CorelCorpID_0Corel-Layer"/>
  <g id="_2697298297760">
   <path class="fil0 str0" d="M6470.21 2781.84l-151.35 388.11 -12.44 54.47 -26.43 47.64 -38.91 107.64 -584.12 1555.11c-16.2,-123.61 -12.81,-298.25 -16.22,-427.7 -3.03,-114.56 -41.31,-780.5 -3.65,-834.51 27.79,-39.83 189.16,-185.9 198.24,-226.33 31.7,-18.33 207.43,-215.01 240.37,-254.45l356.1 -390.46c35.68,-35.28 27.83,-51.35 38.41,-19.52zm2732.84 1544.05l22.57 -2.73 258.85 -109.76c31.88,-32.18 51.27,-9.62 68.85,-62.85 -51.99,-18.89 -175.08,26.17 -231.84,41.1 -39.44,10.36 -203.97,47.62 -239.11,73.21 -49.83,-6.18 -1691.11,447.26 -1707.4,461.82 -90.96,-4.28 -319.23,94.62 -429.35,104.39 16.11,-55.54 57.11,-123.82 53.94,-182.64l-649.79 -0.77c5.75,-85.36 81.84,-216.02 103.21,-303.47 45.13,-73.12 68.19,-215.18 114.36,-282.2l538.07 -0.88c26.5,-32.69 163.63,-400.99 170.27,-448.01l-540.42 -2.63c13.36,-61.65 165.73,-474.8 188.1,-508.72l570.06 -1.19c24.06,-31.2 122.39,-291.99 120.23,-323.77 2.02,-2.13 4.81,-8.46 5.64,-6.77l28.28 -70.97 -1748.62 -1.3c-15.85,33.1 -27.71,48.65 -58.48,68.88 -27.29,65.24 -110.83,119.44 -134.8,183.62 -7.02,4.04 -3.37,0.99 -15.09,10.99l-181.27 215.56c-60.88,79.09 -121.33,152.48 -192.63,223.19l145.74 -373.09 116.2 -327.97c-108.55,-4.42 -222.41,-1.16 -331.57,-1.16 -308.93,0 -201.99,-13.16 -270.74,48.9l-17.37 81.55c-27.75,33.61 -476.6,1262.95 -475.04,1287.52 -24.41,28.32 -90.12,216.43 -102.78,250.78l-273.78 751.01 565.36 -1.54 18.19 -30.49 29 -86.79 328.76 -862.07c43.06,85.36 9.33,802.71 40.92,977.49l774.09 3.13c-2.24,3.51 -5.79,2.99 -7.03,6.47l-22 11.78c-93.3,37.77 -989.95,267.55 -1006.17,270.33l-204.32 60.52 -1772.26 476.36c-128.45,29.72 -251.26,53.38 -392.38,50.57 -79.52,-1.58 -324.29,-27.77 -367.64,-66 -177.12,-46.71 -383.76,-209.51 -438.46,-347.59l-43.31 -61.37c-14.97,-52.28 -50.77,-112.8 -45.78,-173.44 -20.08,-28.03 -23.1,-86.1 -26.5,-122.28 -22.64,-241.38 48.05,-503.88 135.95,-724.62l53.63 -104.71 4.7 -18.56c1.5,-5.37 11.17,-32.24 11.69,-39.3 2.09,-28 22.64,-7.97 -9.19,-20.99l-359.13 466.99c-23.64,32.59 -34.81,38.64 -50.3,78.59l-171.18 241.36c-28.76,42.05 -147.44,223.67 -151.37,261.02l-101.51 169.74c-31.2,58.11 -66.03,125.68 -86.48,190.42 -18.26,12.35 -416.1,834.42 11.26,1266.19 132.38,133.74 281.25,237.88 515.51,311.3 210.25,65.89 547.36,70.1 763.1,9.2 78.48,-5.65 175.29,-55.91 243.56,-51.43 25.26,-20.58 294.65,-108.22 330.58,-121.41 228.52,-83.93 749.95,-303.1 947.47,-398.73l119.91 -44.9 451.96 -200.28 160.69 -62.96c34.79,-27.29 210.84,-94.02 270.68,-119.68 94.47,-40.53 188.98,-80.9 284.71,-124.24 68.89,-31.19 527.4,-234.81 566.71,-235.21 12.62,-12.81 -2.55,-3.07 25.48,-19.7l486.14 -206.45 1592.89 -688.44 357.48 -164.26 81.63 -30.23c11.05,-5.18 19.9,-8.17 33.34,-13.75l1145.33 -501.68zm-6514.32 -1480.21l-168.24 456.91 -570.58 1501.09c-14.55,59.14 -58.08,207.55 -96.83,242.66l-13.94 70.18 567.82 1.62 198.17 -526.22c65.81,-179.06 128.85,-351.43 197.88,-520.78l-64.2 1044.33 610.72 2.67 58.31 -141.49c17.91,-47.16 35.93,-93.2 53.7,-140.87 38.53,-103.36 72.19,-187.47 108.67,-289.54 205.37,-574.76 445.68,-1157.02 651.28,-1736.17l36.04 -89.5c-17.14,-27.61 30.05,-21.33 -31.56,-23.11l-530.97 0.51c-24.2,33.76 -29.9,65.36 -40.26,104.29 -18.3,21.73 -159.13,414.42 -180.33,472.89 -32.38,89.33 -150.06,429.82 -189.22,479.24l65.98 -1056.43 -612.19 1.11 -50.25 146.61zm1450.17 400.39c-22.15,20.68 -157.64,391.02 -172.77,448.37l-57.08 152.57 -335.98 895.3 -140.4 375.67 567.51 -1.14c72.54,-162.13 147.34,-375.28 206.75,-546.18 64.48,-185.45 138.69,-369.27 206.65,-549.49 50.92,-135.01 402.1,-1039.91 401.64,-1093.73 29.39,-32.39 83.6,-196.09 89.32,-228.75l-568.52 -0.91 -124.7 343.18c-18.48,24.55 -72.09,158.62 -72.42,205.11zm-819.38 2672.23l-1.94 -76.57c41.99,-8.39 53.52,-3.85 91.18,-8.38 68.23,-8.2 11.48,-0.63 38.96,-18.58 20.26,-13.24 14.26,-13.02 53.28,-20.65 12.5,17.94 12.58,6.37 16.59,39.58 6.76,55.98 2.71,15.63 -6.38,31.9l-23.36 37.89c-1.53,1.7 -3.89,3.44 -5.46,5.03 -21.7,21.89 -49.91,39.44 -63.02,69.35 21.83,47.51 75.48,51 122.53,51l-0.01 40.94 -143.04 0 -6.73 -108.98c-106.57,-2.73 0.92,-8.31 -72.6,-42.53z"/>
   <path class="fil0 str0" d="M3447.72 5814.77c-27.48,17.95 29.27,10.38 -38.96,18.58 -37.66,4.53 -49.19,-0.01 -91.18,8.38l1.94 76.57c73.52,34.22 -33.97,39.8 72.6,42.53l6.73 108.98 143.04 0 0.01 -40.94c-47.05,0 -100.7,-3.49 -122.53,-51 13.11,-29.91 41.32,-47.46 63.02,-69.35 1.57,-1.59 3.93,-3.33 5.46,-5.03l23.36 -37.89c9.09,-16.27 13.14,24.08 6.38,-31.9 -4.01,-33.21 -4.09,-21.64 -16.59,-39.58 -39.02,7.63 -33.02,7.41 -53.28,20.65z"/>
  </g>
 </g>
</svg>
