<?xml version="1.0" encoding="UTF-8"?>
<!DOCTYPE svg PUBLIC "-//W3C//DTD SVG 1.1//EN" "http://www.w3.org/Graphics/SVG/1.1/DTD/svg11.dtd">
<!-- Creator: CorelDRAW 2020 (64 Bit) -->
<svg xmlns="http://www.w3.org/2000/svg" xml:space="preserve" width="101.6mm" height="101.6mm" version="1.1" style="shape-rendering:geometricPrecision; text-rendering:geometricPrecision; image-rendering:optimizeQuality; fill-rule:evenodd; clip-rule:evenodd"
viewBox="0 0 10160 10160"
 xmlns:xlink="http://www.w3.org/1999/xlink"
 xmlns:xodm="http://www.corel.com/coreldraw/odm/2003">
 <defs>
  <style type="text/css">
   <![CDATA[
    .str0 {stroke:black;stroke-width:20;stroke-miterlimit:22.9256}
    .fil0 {fill:#030303}
   ]]>
  </style>
 </defs>
 <g id="Camada_x0020_1">
  <metadata id="CorelCorpID_0Corel-Layer"/>
  <path class="fil0 str0" d="M4793.18 2279.97c54.08,39.94 763.94,1236.42 865.57,1409.66 110.93,189.12 826.77,1342.03 840.59,1436.43 68.61,63.62 193.72,280.37 218.12,350.43l1942.7 2.47c-61.85,-154.88 -509.03,-862.99 -631.78,-1073.35l-1584.63 -2633.38c-76.16,-124.9 -241.53,-436.17 -322.25,-517.88 -216.84,97.69 -506.55,297.5 -709.82,419.67 -241.5,145.15 -475.91,281.18 -702.36,425.63l83.86 180.32zm-658.38 3578.84l405.2 -0.15 -13.42 -360.59 -385.68 -6.27 -6.1 367.01zm-3.14 1832.43l407.53 -0.49 -0.41 -1678.58 -407.9 -0.46 0.78 1679.53zm-2698.7 -1205.63l25.09 34.28c360.3,452.06 -8.01,677.98 -68.72,779.97 -207.11,49.32 -336.51,115.17 -537.2,-32.42 -265.49,-195.22 -285.62,-633.4 60.42,-813.26 221.48,-115.08 333.05,-40.52 520.41,31.43zm569 1176.29l4.24 -1612.95 -343.45 -1.54c-104.4,35.29 -22.78,-14.67 -72.3,82.64 -78.69,-47.2 -219.54,-113.84 -337.41,-100.45 -302.93,-177.21 -1140.27,268.75 -973.08,1037.85 109.54,503.82 707.59,890.03 1286.38,566.28 50.02,46.27 4.41,68.43 190.87,70.14 161.01,1.46 197.98,13.51 244.75,-41.97zm1394.08 -2265.52c-42.32,-23.07 -75.03,-88.63 -82.17,-151.19 -72.15,-50.2 -554.19,-864.27 -609.58,-980.81 -103.5,40.61 -256.72,145.3 -355.51,202.98 -290.82,169.78 -845.33,531.65 -1068.7,638.31 28.12,87.87 160.08,327.94 238.07,373.46l1879.9 -0.49c2.29,-6.07 7.58,-18.16 7.35,-15.48 -0.27,3.04 3.19,-14.03 2.73,-17.78 -0.64,-4.97 -9.94,-41.28 -12.09,-49zm5545.32 1758.19l-418.25 -0.53c9.3,693.07 1084.39,698.76 1393.85,350.72 223.9,-251.78 137.66,-591.4 -119.44,-723.54 -212.39,-109.18 -678.07,-98.29 -792.69,-300.4 -32.59,-176.81 487.73,-309.76 558.25,50.66l426.18 0.2c-3.34,-436.14 -345.05,-561.39 -783.34,-546.58 -374.5,12.67 -719.73,258.75 -610.37,673.69 89.91,341.01 525.09,316.06 862.93,436.9 482.01,172.36 -298.51,481.25 -459.93,172.71l-37.58 -82.09c-2.36,-4.38 -7.58,-12.37 -9.59,-15.91 -2.03,-3.58 -6.1,-10.95 -10.02,-15.83zm-1946.44 -191.74c-109.8,-657.11 860.78,-757.75 941.41,-169.32 91.01,664.07 -843.96,752.52 -941.41,169.32zm910.07 668.72c48.39,49.7 -8.34,30.44 62.94,61.11l365.3 8.92 7.79 -1640.93 -436.03 61.52c-613.33,-348.56 -1303.63,109.98 -1311.13,743.87 -7.78,653.76 684.47,1108.87 1311.13,765.51zm-2476.26 -1203.45c272.95,-103.99 537.08,84.26 604.21,285.3 96,287.54 -79.04,543.32 -290.16,616.67 -578.12,200.83 -941.76,-662.86 -314.05,-901.97zm572.37 1203.71c40.49,-23.85 15.22,-29.4 48.1,-21.84 3.14,7.78 16.62,37.9 22.86,48.59 1.92,3.31 10.4,18.82 11.97,14.93 1.63,-4.01 8.97,9.62 13.36,14.44l343.98 2.47 0.87 -2195.96 -389.93 6.77 -1.16 630.96c-331.52,-132.28 -533.95,-208.68 -896.74,-15.83 -225.61,119.93 -433.53,385.89 -445.53,727.19 -32.21,914.37 1045.78,1052.35 1292.22,788.28zm-3111.03 -1208.62c594.8,-207.86 895.67,715.81 300.61,910.19 -592.01,193.39 -919.34,-693.96 -300.61,-910.19zm619.4 -292.5c-302.2,-134.26 -562.93,-197.09 -890.81,-19.55 -227.91,123.39 -439.49,369.16 -453.98,730.41 -26.84,669.34 711.77,1165.05 1317.02,785.15 127.05,57.02 -226.91,75.58 432.46,75.08l-1.2 -2223.69 -402.67 1.07 -0.82 651.53zm-36.48 -1685.52c68.58,46.22 162.63,246.64 221.22,341.68 51.85,84.12 188.75,293.03 200.19,368.78 98.53,76.54 121.89,217.57 208.56,288.93 125.28,53.65 766.12,10.93 958.09,10.93 199.52,0 830.14,33.02 961.86,-12.26 -153.8,-355.19 -1549.22,-2477.45 -1578.41,-2674.92 -122.29,7.44 -881.81,495.49 -1097.28,624.86 -98.71,59.26 -265.76,145.5 -349.35,219.57l475.12 832.43z"/>
 </g>
</svg>
