<?xml version="1.0" encoding="UTF-8"?>
<!DOCTYPE svg PUBLIC "-//W3C//DTD SVG 1.1//EN" "http://www.w3.org/Graphics/SVG/1.1/DTD/svg11.dtd">
<!-- Creator: CorelDRAW 2020 (64 Bit) -->
<svg xmlns="http://www.w3.org/2000/svg" xml:space="preserve" width="101.6mm" height="101.6mm" version="1.1" style="shape-rendering:geometricPrecision; text-rendering:geometricPrecision; image-rendering:optimizeQuality; fill-rule:evenodd; clip-rule:evenodd"
viewBox="0 0 10160 10160"
 xmlns:xlink="http://www.w3.org/1999/xlink"
 xmlns:xodm="http://www.corel.com/coreldraw/odm/2003">
 <defs>
  <style type="text/css">
   <![CDATA[
    .str0 {stroke:#1A1A1A;stroke-width:20;stroke-miterlimit:22.9256}
    .fil0 {fill:#1A1A1A}
   ]]>
  </style>
 </defs>
 <g id="Camada_x0020_1">
  <metadata id="CorelCorpID_0Corel-Layer"/>
  <g id="_2697419332704">
   <path class="fil0 str0" d="M8347.77 3594.53l-95.97 23.57c-23.44,2.24 -36.93,-0.47 -64.91,1.1 -60.18,3.4 -102.66,9.68 -164.53,9.32l-1029.84 75.68c-71.7,37.57 -289.68,43.81 -368.41,43.82l-1356.23 111.24 -3783.04 308.44c3.56,344.01 41.13,184.82 -98.69,462.78 270.71,17.21 1562.71,-41.09 1951.07,-51.78 265.5,-7.3 1843.25,-87.52 1962.48,-39.75 89.97,-44.45 1519.99,-63.37 1615.38,-67.82 556.09,-25.94 1115.67,-37.49 1669.44,-47.3 103.23,-5.33 296.63,3.48 388.37,-15.31 66.86,-13.69 128.09,-67.92 188.06,-104.95 57.39,-35.44 21.73,-23.72 77.12,-33.75 47.56,-74.57 120.99,-110.38 193.96,-168.64 39.35,-31.42 59.99,-46.14 98.7,-78.61 61.66,-51.7 62.31,-34.92 79.13,-106.92l-334.84 -209.8c-88.96,-35.07 -146.73,-72.47 -239.49,-114.37 -145.41,-65.72 -174.53,-9.15 -285.82,-45.08 -5.01,2.77 -11.83,5.34 -15.78,6.75l-80.33 21.5c-32.66,4.57 -73.99,5.2 -107.84,7.49 -64.65,4.36 -139.15,13.87 -197.99,12.39z"/>
   <path class="fil0 str0" d="M5522.23 4857.53c43.85,192.19 -149.77,454.51 -379.09,556.85 -459.8,205.18 -1208.39,122.32 -1678.7,-19.38 -181.1,-54.56 -561.51,-201.45 -654.34,-306.32 29.06,-73.03 59.37,-86.44 68.92,-173.5l-652.15 13.93c104.97,170.7 906.66,580.24 1048.59,579.13 15.96,6.11 38.88,13.19 54.98,20.07l60.47 30.63 28.17 7.64c69.17,6.08 70.97,-2.71 115.08,40.96 160.87,18.1 432.44,102.85 768.88,139.38 599.3,65.08 1099.4,41.22 1691.74,-46.06 268.63,-39.59 503.26,-110.94 745.01,-159.1l126.05 -47.71c267.15,-22.44 754.29,-325.01 894.84,-336.22 61.41,-75.07 187.48,-125.93 262.01,-177.09 83.1,-57.04 188.65,-128.68 236.35,-217.34 -464.89,3.38 -924.77,25.04 -1391.15,35.52 -228.51,5.14 -1226.04,0.16 -1345.66,58.61z"/>
   <path class="fil0 str0" d="M4638.95 2676.91c-557.23,106.81 -918.07,170.18 -1400.3,379.29 -325.76,141.24 -763.15,409.73 -1016.14,660.77 -52.35,51.94 -25.46,12.62 -55.78,79.77l627.48 -42.5c18.84,-103.68 -54.22,-74.11 -70.03,-184.67 494.07,-439.68 2069.09,-943.22 2576.29,-365.67 54.92,62.55 158,217.62 147.37,329.1l2726.31 -205.67c-30.64,-70.14 -57.4,-49.72 -108.57,-118.57 -171.71,-23.67 -951.4,-739.77 -3426.63,-531.85z"/>
   <path class="fil0 str0" d="M358.05 7436.51l-110.38 422.9 478.22 6.36c64.31,-176.47 251.1,-939.99 284.84,-997.41 21.45,-36.47 78.13,-87.22 150.78,-60.01 96.38,36.12 25.72,73.76 44.43,155.02 -25.5,64.9 -30.19,113.86 -69.14,153.4l-89.8 366.27c-4.38,25.77 -6.16,51.67 -13.85,76.82 -8.3,27.1 -17.95,35.76 -23.85,45.7l-64.77 258.15 469.13 0.96 235.36 -834.83c26.75,-99.2 34.02,-221.98 150.72,-226.39 172.58,-6.51 52.49,237.63 -19.94,497.08 -38.61,138.22 -138.8,439.28 -148.71,560.9l473.39 4.17 247.4 -890.06c3.94,-26 5.51,-52.38 12.97,-77.89 20.17,-69 9.98,-22.78 23.19,-45.61 9.72,-106.42 -19.39,-156.22 -51,-216.75 -315.91,-51.52 -439.83,-160.82 -854.79,90.16 -131.66,-111.18 -153.79,-158.6 -394.7,-157.33 -741.04,3.87 -559.42,590.18 -729.5,868.39z"/>
   <path class="fil0 str0" d="M2910.97 6619.63c58.89,59.6 68.49,46 157.05,11.35l8.77 139.2 37.62 -15.22c162.36,-14.95 243.71,-58.44 177.66,160.49l-181.51 652.09c-39.85,140.58 -99.27,165.97 -246,122.45 -23.75,-81.02 1.29,-99.32 18.31,-186.67l39.84 -116.72c21.12,-133.83 92.55,-255.4 90.46,-388.9 -18.54,-133.16 13.79,-13.43 -45.09,-89.6 -29.68,-38.4 -23.46,-25.36 -35.86,-75.67l-134.79 12.11c-32.58,-51.02 13.33,-105.79 -92.32,-130.36 -43.21,8.91 -9.92,-7.74 -49.21,22.1 -6.54,4.98 -38.34,43.08 -44.35,53.41 -23.12,39.78 -33.31,85.48 -48.08,133.86 -3.56,32.07 0.85,36.68 -7.59,63.64 -22.2,70.86 -19.27,40.89 -32.99,58.42l-73.47 304.09c-3.62,23.44 -3.58,50.08 -12.04,72.91 -22.03,59.52 -14.13,29.5 -34.7,50.87 -19.93,224.95 -143.99,292.86 176.62,382.24l80.26 29.22c4.24,1.88 11.09,4.93 16.23,8.1l23 -15.98c165.73,19.17 390.34,16.21 550.74,-17.58 360.63,-75.98 323.21,-216.03 470.59,-748.67 22.32,-80.67 48.37,-157.56 65.75,-231.58 14.62,-62.38 25.28,-83.39 0.98,-145.53 -19.05,-48.73 -7.91,-21.53 -66.86,-82.43 -2.54,-2.62 -7.82,-7.38 -11.19,-11.54 -112.78,-9.53 -219.03,-65.95 -391.2,-69.85 -121.72,-2.77 -335.85,9.03 -406.63,49.75z"/>
   <path class="fil0 str0" d="M7909.9 7170.23c54.08,-41.68 58.91,-26.56 82.74,-25.93 0.43,11.51 23,5.22 -20.53,66.59 -30.84,110.04 -62.54,224.32 -96.54,346.84 -35.62,128.35 -85.91,225.15 -265.08,144.02 -13.37,-91.22 43.67,-246.25 69.78,-342.16 36.91,-135.58 59.69,-190.14 229.63,-189.36zm164.49 -306.06l-53.63 125.64c-190.44,25.22 -389.95,57.93 -550.29,120.3 -66.69,14.38 -94.54,46.62 -150.49,59.07 -58.27,116.9 -76.11,155.86 -122.84,319.67 -50.99,178.76 -60.77,224.95 23.14,352.04 87.04,6.27 153.91,36.05 278.79,37.83 104.27,1.49 212.64,-0.75 316.22,-3.27l463.84 -8.77 11.71 -35.8c40.7,-201.95 110.5,-416.92 167.43,-620.2 29.81,-106.39 55.8,-199.12 86.21,-308.18 58.7,-210.48 -17.66,-198.36 -86.1,-279.66l-31.7 -2.53c-19.34,20.26 12.94,46.53 -48.4,46.69l-2.67 86.85 -105.23 -0.3 -9.29 280.42 -102.66 0c2.54,-92.37 12.68,-31.89 18.51,-112.5l-26.46 -116.28 -57.83 45.87c-3.29,-4.93 -11.82,9.28 -18.26,13.11z"/>
   <path class="fil0 str0" d="M4204.72 7861.56l72.08 -325.78 46.63 -127.63 28.74 -122.92 69.76 -253.43 38.48 -119.06c13.99,-69.17 37.58,-122.35 62.35,-162.58 303.52,-60.75 94.96,139.56 135.82,249.15l138.01 -1.2 119.58 10.07c56.5,-33.39 134.73,-15.56 205.76,-33.63 51.6,-75.11 57.03,-183.73 46.85,-300.12 -66.67,-50.77 -90.26,-80.65 -213.85,-86.77 -95.18,-4.72 -199.83,0.8 -296.35,0.76 -168.17,-0.09 -440.9,18.65 -594.58,-10.04l-353.47 1283.73 494.19 -0.55z"/>
   <path class="fil0 str0" d="M6426.87 6645.66l-51.79 41.15c0,206.35 -15.97,65.09 172.26,109.38 202.74,31.69 163.64,-1.15 28.99,487.05 -40.49,146.82 -142.04,449.89 -153.44,579.26l489.66 -1.74 -4.91 -10.15c36.44,-192.48 108.72,-409.97 163.11,-605.64 26.06,-93.69 57.13,-204.43 81.57,-291.11 46.73,-165.78 34.15,-198.39 -23.01,-318.12 -122.27,-21.24 -173.4,-64.41 -360.08,-64.08 -115.96,0.19 -275.93,15.04 -342.36,74z"/>
   <path class="fil0 str0" d="M5642.89 6613.29l228.97 24.14c-1.32,72.86 10.68,59.99 -19.72,108.56l147.9 19.74c-42.46,0 -58.97,-4.3 -98.04,7.34 -74.96,22.34 -7.3,-12.57 -51.26,35.33 186.21,-10.19 168.25,33.28 121.26,189.52 -23.48,78.09 -57.44,184.95 -71.67,271.06l-38.78 117.14c-28.4,135.92 -115.62,355.36 -117.08,479.59l461.06 -1.8 149.79 -537.17c4.45,-29.33 3.44,-42.9 13.38,-73.04 27.03,-82 0.98,-6.22 25.32,-45.18 14.9,-76.6 33.92,-130.1 56.08,-211.96 31.48,-116.32 35.14,-123.85 97.24,-200.37 -188.23,-44.29 -172.26,96.97 -172.26,-109.38l51.79 -41.15 -150.53 79.46c-46.75,-34.44 -38.58,-48.18 -92.2,-85.04 -37.54,-25.81 -71.19,-34.57 -105.18,-53.33 -101.12,-12.02 -237.85,-29.04 -345.22,-9.07 -16.14,3 -31.76,7.17 -47.33,12.77 -64.44,23.16 -15.18,1.45 -43.52,22.84z"/>
   <path class="fil0 str0" d="M5103.58 7567.57c0.91,87.82 -34.6,220.57 -74.8,292.5l489.6 5.43c99.59,-268.77 193.95,-889.43 332.36,-1057.1 43.96,-47.9 -23.7,-12.99 51.26,-35.33 39.07,-11.64 55.58,-7.34 98.04,-7.34l-147.9 -19.74c30.4,-48.57 18.4,-35.7 19.72,-108.56l-228.97 -24.14c-102.72,-8.18 -192.28,62.76 -247.91,119.33 -76.59,77.94 -82.05,137.62 -116.4,260.5 -31.31,112.07 -109.46,500.04 -175,574.45z"/>
   <path class="fil0 str0" d="M9362.16 7089l-20.58 111.67c-5.57,21.7 -9.01,47.4 -16.74,68.88 -31.03,86.41 -10.24,26.06 -31.9,54.28l-98.2 378.36 -23.56 93.36c-1.75,4.27 -5.85,10.34 -8.63,15.61l-3.51 66.2 466.36 -12.62c71.32,-183.86 218.96,-708.33 251.88,-911.51l-473.26 0.76 -41.86 135.01z"/>
   <path class="fil0 str0" d="M9149.37 7139.59l45.49 -127.28c12.94,-109.73 4.54,-21.14 -18.39,-58.43 -137.35,-1.84 -324.9,-18.96 -453.77,12.25 -41.37,113.79 -238.92,816.1 -236.62,899.4l463.87 -0.93 199.42 -725.01z"/>
   <path class="fil0 str0" d="M7439.05 6768.91l-17.05 99.1 288.91 -11.8c160.28,11.19 105.92,19.75 168.32,-66.35 43.85,-60.52 115.6,-71.14 193.63,-24.23l1.53 98.54c6.44,-3.83 14.97,-18.04 18.26,-13.11l57.83 -45.87 26.46 116.28c-5.83,80.61 -15.97,20.13 -18.51,112.5l102.66 0 9.29 -280.42 105.23 0.3 2.67 -86.85c61.34,-0.16 29.06,-26.43 48.4,-46.69 -187.85,-47.69 -372.08,-65.92 -579.73,-42.97 -221.84,24.51 -306.67,57.4 -407.9,191.57z"/>
   <path class="fil0 str0" d="M9255.29 6800.4l40.19 -138.96c-2.62,-115.41 25.4,-50.46 -40.08,-73.13l-429.56 1.32 -55.45 211.96 484.9 -1.19z"/>
   <polygon class="fil0 str0" points="9444.56,6800.12 9923.74,6802.83 9982.83,6593.3 9511.86,6588.65 "/>
   <path class="fil0 str0" d="M2741.45 6657.92c-5.22,7.58 -32.09,50.08 -36.34,56.26 105.65,24.57 59.74,79.34 92.32,130.36l134.79 -12.11c12.4,50.31 6.18,37.27 35.86,75.67 58.88,76.17 26.55,-43.56 45.09,89.6 46.05,-53.42 75.87,-190.6 101.24,-242.74l-37.62 15.22 -8.77 -139.2c-88.56,34.65 -98.16,48.25 -157.05,-11.35l-169.52 38.29z"/>
  </g>
 </g>
</svg>
