<?xml version="1.0" encoding="UTF-8"?>
<!DOCTYPE svg PUBLIC "-//W3C//DTD SVG 1.1//EN" "http://www.w3.org/Graphics/SVG/1.1/DTD/svg11.dtd">
<!-- Creator: CorelDRAW 2020 (64 Bit) -->
<svg xmlns="http://www.w3.org/2000/svg" xml:space="preserve" width="84mm" height="20mm" version="1.1" style="shape-rendering:geometricPrecision; text-rendering:geometricPrecision; image-rendering:optimizeQuality; fill-rule:evenodd; clip-rule:evenodd"
viewBox="0 0 8400 2000"
 xmlns:xlink="http://www.w3.org/1999/xlink"
 xmlns:xodm="http://www.corel.com/coreldraw/odm/2003">
 <defs>
  <style type="text/css">
   <![CDATA[
    .fil0 {fill:#D2D3D5;fill-rule:nonzero}
   ]]>
  </style>
 </defs>
 <g id="Camada_x0020_1">
  <metadata id="CorelCorpID_0Corel-Layer"/>
  <path class="fil0" d="M1072.2 1005.31l416.37 24.86c-19.66,181.47 -86.83,320.64 -201.5,417.49 -114.68,96.86 -255.69,145.48 -423.06,145.48 -201.51,0 -364.05,-66.8 -487.63,-200.03 -123.95,-133.22 -185.92,-317.66 -185.92,-552.2 0,-232.68 58.63,-420.46 175.9,-563.34 117.27,-142.87 280.92,-214.12 490.97,-214.12 196.31,0 347.35,54.18 452.74,162.54 105.03,108.36 164.77,252.35 178.5,431.22l-425.28 23.01c0,-99.08 -18.93,-170.33 -56.78,-214.5 -37.85,-44.16 -82.75,-66.05 -133.97,-66.05 -142.87,0 -214.49,144.36 -214.49,433.45 0,161.8 18.55,272.02 55.66,329.91 37.48,58.26 89.81,87.21 156.98,87.21 119.86,0 187.03,-81.65 201.51,-244.93zm1682.21 565.56l-411.93 0c-10.39,-47.13 -15.58,-98.71 -15.58,-154.75 -78.31,118.01 -196.69,177.02 -355.52,177.02 -130.63,0 -228.23,-33.4 -293.17,-99.83 -64.95,-66.8 -97.23,-142.88 -97.23,-228.97 0,-116.53 53.07,-210.79 159.2,-282.78 106.14,-72 294.29,-115.42 564.45,-129.89l0 -25.23c0,-48.99 -11.13,-81.65 -33.03,-97.6 -21.89,-15.96 -54.18,-24.13 -96.48,-24.13 -99.46,0 -155.13,40.83 -166.63,122.47l-396.34 -37.85c56.41,-231.57 248.64,-347.36 576.7,-347.36 89.06,0 170.7,8.91 245.3,26.72 74.59,17.82 133.59,45.28 177.01,83.13 43.42,37.85 72.74,77.56 87.58,119.5 14.85,42.3 22.27,123.2 22.27,242.7l0 441.61c0,83.87 11.13,155.86 33.4,215.24zm-449.78 -516.58c-184.07,19.3 -276.1,78.31 -276.1,176.65 0,66.43 36.37,99.46 109.47,99.46 46.02,0 85.36,-13.74 118.02,-41.2 32.28,-27.46 48.61,-87.95 48.61,-181.84l0 -53.07zm1721.55 516.58l-434.19 0 0 -696.56c0,-57.52 -8.54,-93.89 -26.35,-109.85 -17.82,-15.95 -39.71,-24.12 -66.43,-24.12 -78.67,0 -118.01,55.3 -118.01,165.51l0 665.02 -434.19 0 0 -1106.63 202.32 0 200.7 0 0 156.61c59.37,-119.13 165.51,-178.88 318.03,-178.88 80.53,0 148.07,15.59 203.74,46.39 55.29,30.8 95,70.51 118.75,119.5 23.75,48.98 35.63,133.97 35.63,254.94l0 708.07zm1236.89 -1106.63l-433.82 1198.66c-33.4,90.92 -81.27,161.43 -143.25,212.27 -62.34,50.85 -158.46,76.45 -287.97,76.45 -31.18,0 -103.54,-2.97 -217.1,-8.9l0 -309.5c56.78,8.9 108.74,13.36 156.98,13.36 124.69,0 187.03,-26.72 187.03,-80.16 0,-18.19 -5.93,-43.05 -18.55,-74.97l-396.71 -1027.21 463.88 0 181.47 586.34 191.12 -586.34 316.92 0zm764.47 1128.9c-208.93,0 -379.27,-69.4 -511.01,-207.82 -131.74,-138.42 -197.42,-323.6 -197.42,-555.54 0,-221.55 63.08,-404.88 188.89,-549.61 125.8,-144.36 300.59,-216.72 523.99,-216.72 206.71,0 375.56,68.28 505.82,204.48 130.26,136.19 195.2,318.03 195.2,545.52 0,235.65 -65.69,424.54 -197.06,566.67 -131.37,142.14 -300.59,213.02 -508.41,213.02zm-1.85 -336.22c77.19,0 132.85,-33.77 166.62,-100.94 33.77,-67.17 50.84,-190.01 50.84,-368.51 0,-258.66 -69.76,-387.8 -208.93,-387.8 -150.3,0 -225.26,147.33 -225.26,442.35 0,276.48 72.37,414.9 216.73,414.9zm2167.98 313.95l-371.85 0 -408.21 -655c-52.7,-84.24 -104.28,-186.66 -155.49,-308.38 24.12,95.74 35.99,177.01 35.99,243.81l0 719.57 -369.62 0 0 -1485.16 429.74 0 346.24 544.04c69.03,107.99 120.98,203.37 156.24,285.38 -23.38,-126.92 -34.89,-256.8 -34.89,-389.66l0 -439.76 371.85 0 0 1485.16z"/>
 </g>
</svg>
